# xmcd CD database file
#
# Track frame offsets:
#	150
#	26450
#	51157
#	69677
#	87455
#	99462
#	114845
#	139897
#	161205
#	182372
#	195392
#	216862
#	229250
#	254895
#	265915
#
# Disc length: 3973 seconds
#
# Revision: 6
# Processed by: cddbd v1.5.1PL0 Copyright (c) Steve Scherf et al.
# Submitted via: CDex 1.51
#
DISCID=d90f830f
DTITLE=Kitaro feat. The London Symphony Orchestra - Silk Road Suite
DYEAR=1980
DGENRE=New Age
TTITLE0=Tienshan
TTITLE1=Peace
TTITLE2=Journey
TTITLE3=Silk Road Theme
TTITLE4=Drifting Sand
TTITLE5=Fragrance Of Nature
TTITLE6=Silk Road Fantasy
TTITLE7=Time
TTITLE8=Flying Celestial Nymphs
TTITLE9=Silk Road Theme - Andante
TTITLE10=Everlasting Road
TTITLE11=Bell Tower
TTITLE12=Sunset
TTITLE13=Westbound
TTITLE14=Magical Sand Dance
EXTD=YEAR: 1980
EXTT0=
EXTT1=
EXTT2=
EXTT3=
EXTT4=
EXTT5=
EXTT6=
EXTT7=
EXTT8=
EXTT9=
EXTT10=
EXTT11=
EXTT12=
EXTT13=
EXTT14=
PLAYORDER=
